<svg width="239" height="48" viewBox="0 0 239 48" fill="none" xmlns="http://www.w3.org/2000/svg">
<path d="M28.6195 15.9994L40.1004 35.8809M19.3805 15.9994H42.3423M14.759 23.9991L26.24 4.11755M19.38 31.9998L7.89912 12.1182M28.6205 32.0006H5.6587M33.2405 24L21.7596 43.8816M44.0016 24C44.0016 35.0466 35.0466 44.0016 24 44.0016C12.9534 44.0016 3.99841 35.0466 3.99841 24C3.99841 12.9534 12.9534 3.9984 24 3.9984C35.0466 3.9984 44.0016 12.9534 44.0016 24Z" stroke="#C8A25D" stroke-width="2" stroke-linecap="round"/>
<path d="M81.552 33.24C80.32 33.24 79.176 33.024 78.12 32.592C77.064 32.144 76.136 31.528 75.336 30.744C74.552 29.944 73.944 29.016 73.512 27.96C73.096 26.904 72.888 25.768 72.888 24.552C72.888 23.336 73.096 22.2 73.512 21.144C73.944 20.088 74.552 19.168 75.336 18.384C76.136 17.6 77.056 16.984 78.096 16.536C79.152 16.088 80.304 15.864 81.552 15.864C82.896 15.864 84.08 16.088 85.104 16.536C86.128 16.968 87.032 17.568 87.816 18.336L85.608 20.544C85.144 20.032 84.576 19.632 83.904 19.344C83.232 19.056 82.448 18.912 81.552 18.912C80.768 18.912 80.048 19.048 79.392 19.32C78.752 19.576 78.192 19.96 77.712 20.472C77.232 20.968 76.864 21.568 76.608 22.272C76.352 22.96 76.224 23.72 76.224 24.552C76.224 25.4 76.352 26.168 76.608 26.856C76.864 27.544 77.232 28.144 77.712 28.656C78.192 29.152 78.752 29.536 79.392 29.808C80.048 30.08 80.768 30.216 81.552 30.216C82.496 30.216 83.304 30.072 83.976 29.784C84.664 29.496 85.24 29.088 85.704 28.56L87.912 30.768C87.128 31.552 86.216 32.16 85.176 32.592C84.136 33.024 82.928 33.24 81.552 33.24ZM92.5811 25.944V23.4H96.4931C97.2931 23.4 97.9091 23.2 98.3411 22.8C98.7891 22.384 99.0131 21.816 99.0131 21.096C99.0131 20.44 98.7891 19.896 98.3411 19.464C97.9091 19.016 97.2931 18.792 96.4931 18.792H92.5811V16.128H96.7811C97.8691 16.128 98.8211 16.344 99.6371 16.776C100.469 17.192 101.109 17.768 101.557 18.504C102.021 19.24 102.253 20.088 102.253 21.048C102.253 22.04 102.021 22.904 101.557 23.64C101.109 24.36 100.469 24.928 99.6371 25.344C98.8051 25.744 97.8371 25.944 96.7331 25.944H92.5811ZM90.1811 33V16.128H93.4451V33H90.1811ZM99.3971 33L93.8291 25.704L96.8291 24.768L103.357 33H99.3971ZM112.96 33.264C111.728 33.264 110.576 33.04 109.504 32.592C108.448 32.144 107.52 31.528 106.72 30.744C105.936 29.944 105.32 29.016 104.872 27.96C104.424 26.888 104.2 25.744 104.2 24.528C104.2 23.312 104.416 22.184 104.848 21.144C105.296 20.088 105.912 19.168 106.696 18.384C107.496 17.584 108.424 16.968 109.48 16.536C110.536 16.088 111.68 15.864 112.912 15.864C114.16 15.864 115.312 16.088 116.368 16.536C117.424 16.968 118.344 17.584 119.128 18.384C119.928 19.168 120.552 20.088 121 21.144C121.448 22.2 121.672 23.336 121.672 24.552C121.672 25.768 121.448 26.904 121 27.96C120.552 29.016 119.928 29.944 119.128 30.744C118.344 31.528 117.424 32.144 116.368 32.592C115.328 33.04 114.192 33.264 112.96 33.264ZM112.912 30.216C114 30.216 114.944 29.976 115.744 29.496C116.544 29.016 117.168 28.352 117.616 27.504C118.08 26.656 118.312 25.664 118.312 24.528C118.312 23.696 118.184 22.936 117.928 22.248C117.672 21.56 117.304 20.968 116.824 20.472C116.344 19.96 115.776 19.568 115.12 19.296C114.464 19.024 113.728 18.888 112.912 18.888C111.856 18.888 110.92 19.128 110.104 19.608C109.304 20.072 108.672 20.728 108.208 21.576C107.76 22.424 107.536 23.408 107.536 24.528C107.536 25.376 107.664 26.152 107.92 26.856C108.192 27.56 108.56 28.16 109.024 28.656C109.504 29.152 110.072 29.536 110.728 29.808C111.4 30.08 112.128 30.216 112.912 30.216ZM124.259 33V16.128H126.539L127.523 19.392V33H124.259ZM135.923 33L125.915 20.04L126.539 16.128L136.547 29.088L135.923 33ZM135.923 33L134.987 29.832V16.128H138.275V33H135.923ZM149.593 33.264C148.361 33.264 147.209 33.04 146.137 32.592C145.081 32.144 144.153 31.528 143.353 30.744C142.569 29.944 141.953 29.016 141.505 27.96C141.057 26.888 140.833 25.744 140.833 24.528C140.833 23.312 141.049 22.184 141.481 21.144C141.929 20.088 142.545 19.168 143.329 18.384C144.129 17.584 145.057 16.968 146.113 16.536C147.169 16.088 148.313 15.864 149.545 15.864C150.793 15.864 151.945 16.088 153.001 16.536C154.057 16.968 154.977 17.584 155.761 18.384C156.561 19.168 157.185 20.088 157.633 21.144C158.081 22.2 158.305 23.336 158.305 24.552C158.305 25.768 158.081 26.904 157.633 27.96C157.185 29.016 156.561 29.944 155.761 30.744C154.977 31.528 154.057 32.144 153.001 32.592C151.961 33.04 150.825 33.264 149.593 33.264ZM149.545 30.216C150.633 30.216 151.577 29.976 152.377 29.496C153.177 29.016 153.801 28.352 154.249 27.504C154.713 26.656 154.945 25.664 154.945 24.528C154.945 23.696 154.817 22.936 154.561 22.248C154.305 21.56 153.937 20.968 153.457 20.472C152.977 19.96 152.409 19.568 151.753 19.296C151.097 19.024 150.361 18.888 149.545 18.888C148.489 18.888 147.553 19.128 146.737 19.608C145.937 20.072 145.305 20.728 144.841 21.576C144.393 22.424 144.169 23.408 144.169 24.528C144.169 25.376 144.297 26.152 144.553 26.856C144.825 27.56 145.193 28.16 145.657 28.656C146.137 29.152 146.705 29.536 147.361 29.808C148.033 30.08 148.761 30.216 149.545 30.216ZM165.519 33L158.871 16.128H162.399L167.535 29.784H166.167L171.351 16.128H174.831L168.111 33H165.519ZM177.041 33V16.128H180.305V33H177.041ZM188.335 33.24C186.975 33.24 185.807 33.008 184.831 32.544C183.871 32.08 182.999 31.384 182.215 30.456L184.375 28.296C184.871 28.952 185.447 29.464 186.103 29.832C186.759 30.184 187.559 30.36 188.503 30.36C189.351 30.36 190.023 30.192 190.519 29.856C191.031 29.52 191.287 29.056 191.287 28.464C191.287 27.952 191.143 27.536 190.855 27.216C190.567 26.896 190.183 26.624 189.703 26.4C189.239 26.176 188.719 25.976 188.143 25.8C187.583 25.608 187.015 25.392 186.439 25.152C185.879 24.912 185.359 24.616 184.879 24.264C184.415 23.896 184.039 23.432 183.751 22.872C183.463 22.296 183.319 21.576 183.319 20.712C183.319 19.688 183.567 18.816 184.063 18.096C184.559 17.376 185.239 16.824 186.103 16.44C186.967 16.056 187.943 15.864 189.031 15.864C190.183 15.864 191.223 16.08 192.151 16.512C193.079 16.944 193.839 17.504 194.431 18.192L192.271 20.352C191.775 19.808 191.263 19.408 190.735 19.152C190.223 18.896 189.639 18.768 188.983 18.768C188.231 18.768 187.639 18.912 187.207 19.2C186.775 19.488 186.559 19.904 186.559 20.448C186.559 20.912 186.703 21.288 186.991 21.576C187.279 21.864 187.655 22.112 188.119 22.32C188.599 22.528 189.119 22.728 189.679 22.92C190.255 23.112 190.823 23.328 191.383 23.568C191.959 23.808 192.479 24.12 192.943 24.504C193.423 24.888 193.807 25.384 194.095 25.992C194.383 26.584 194.527 27.32 194.527 28.2C194.527 29.768 193.975 31 192.871 31.896C191.767 32.792 190.255 33.24 188.335 33.24ZM197.103 33V16.128H200.367V33H197.103ZM211.726 33.264C210.494 33.264 209.342 33.04 208.27 32.592C207.214 32.144 206.286 31.528 205.486 30.744C204.702 29.944 204.086 29.016 203.638 27.96C203.19 26.888 202.966 25.744 202.966 24.528C202.966 23.312 203.182 22.184 203.614 21.144C204.062 20.088 204.678 19.168 205.462 18.384C206.262 17.584 207.19 16.968 208.246 16.536C209.302 16.088 210.446 15.864 211.678 15.864C212.926 15.864 214.078 16.088 215.134 16.536C216.19 16.968 217.11 17.584 217.894 18.384C218.694 19.168 219.318 20.088 219.766 21.144C220.214 22.2 220.438 23.336 220.438 24.552C220.438 25.768 220.214 26.904 219.766 27.96C219.318 29.016 218.694 29.944 217.894 30.744C217.11 31.528 216.19 32.144 215.134 32.592C214.094 33.04 212.958 33.264 211.726 33.264ZM211.678 30.216C212.766 30.216 213.71 29.976 214.51 29.496C215.31 29.016 215.934 28.352 216.382 27.504C216.846 26.656 217.078 25.664 217.078 24.528C217.078 23.696 216.95 22.936 216.694 22.248C216.438 21.56 216.07 20.968 215.59 20.472C215.11 19.96 214.542 19.568 213.886 19.296C213.23 19.024 212.494 18.888 211.678 18.888C210.622 18.888 209.686 19.128 208.87 19.608C208.07 20.072 207.438 20.728 206.974 21.576C206.526 22.424 206.302 23.408 206.302 24.528C206.302 25.376 206.43 26.152 206.686 26.856C206.958 27.56 207.326 28.16 207.79 28.656C208.27 29.152 208.838 29.536 209.494 29.808C210.166 30.08 210.894 30.216 211.678 30.216ZM210.166 14.64L208.966 13.152L212.422 9.408L214.438 11.856L210.166 14.64ZM223.025 33V16.128H225.305L226.289 19.392V33H223.025ZM234.689 33L224.681 20.04L225.305 16.128L235.313 29.088L234.689 33ZM234.689 33L233.753 29.832V16.128H237.041V33H234.689Z" fill="#F5F6F8"/>
</svg>
